<svg width="161" height="24" viewBox="0 0 161 24" fill="none" xmlns="http://www.w3.org/2000/svg">
<rect width="161" height="24" fill="#1E1E1E"/>
<g id="Checkout - Payment Information" clip-path="url(#clip0_1_3)">
<rect width="1512" height="1361" transform="translate(-120 -40)" fill="white"/>
<g id="Header">
<g id="Logo">
<g id="Logo_2" clip-path="url(#clip1_1_3)">
<path id="Vector" d="M6.84294 23.3333V4.22934H0.314941V0.933336H17.4989V4.22934H10.9389V23.3333H6.84294ZM20.0852 4.99734C19.3385 4.99734 18.7199 4.77334 18.2292 4.32534C17.7599 3.87734 17.5252 3.312 17.5252 2.62934C17.5252 1.94667 17.7599 1.392 18.2292 0.965333C18.7199 0.517336 19.3385 0.293335 20.0852 0.293335C20.8319 0.293335 21.4399 0.517336 21.9092 0.965333C22.3999 1.392 22.6452 1.94667 22.6452 2.62934C22.6452 3.312 22.3999 3.87734 21.9092 4.32534C21.4399 4.77334 20.8319 4.99734 20.0852 4.99734ZM18.0372 23.3333V7.46134H22.1332V23.3333H18.0372ZM31.6244 23.7173C30.0031 23.7173 28.5738 23.3653 27.3364 22.6613C26.0991 21.9573 25.1178 20.976 24.3924 19.7173C23.6884 18.4587 23.3364 17.0187 23.3364 15.3973C23.3364 13.776 23.6884 12.336 24.3924 11.0773C25.1178 9.81867 26.0991 8.83734 27.3364 8.13334C28.5738 7.42934 30.0031 7.07734 31.6244 7.07734C33.6512 7.07734 35.3579 7.61067 36.7446 8.67734C38.1312 9.72267 39.0166 11.1733 39.4006 13.0293H35.0806C34.8672 12.2613 34.4406 11.664 33.8006 11.2373C33.1818 10.7893 32.4458 10.5653 31.5924 10.5653C30.4618 10.5653 29.5018 10.992 28.7124 11.8453C27.9231 12.6987 27.5284 13.8827 27.5284 15.3973C27.5284 16.912 27.9231 18.096 28.7124 18.9493C29.5018 19.8027 30.4618 20.2293 31.5924 20.2293C32.4458 20.2293 33.1818 20.016 33.8006 19.5893C34.4406 19.1627 34.8672 18.5547 35.0806 17.7653H39.4006C39.0166 19.5573 38.1312 20.9973 36.7446 22.0853C35.3579 23.1733 33.6512 23.7173 31.6244 23.7173ZM40.4759 23.3333V0.293335H44.5719V13.8933L50.2039 7.46134H55.0679L48.5719 14.6933L56.1239 23.3333H51.0039L44.5719 15.3653V23.3333H40.4759ZM62.5029 23.7173C60.9029 23.7173 59.4842 23.376 58.2469 22.6933C57.0096 22.0107 56.0389 21.0507 55.3349 19.8133C54.6309 18.576 54.2789 17.1467 54.2789 15.5253C54.2789 13.8827 54.6202 12.4213 55.3029 11.1413C56.0069 9.86134 56.9669 8.86934 58.1829 8.16534C59.4202 7.44 60.8709 7.07734 62.5349 7.07734C64.0922 7.07734 65.4682 7.41867 66.6629 8.10134C67.8576 8.784 68.7856 9.72267 69.4469 10.9173C70.1296 12.0907 70.4709 13.4027 70.4709 14.8533C70.4709 15.088 70.4602 15.3333 70.4389 15.5893C70.4389 15.8453 70.4282 16.112 70.4069 16.3893H58.3429C58.4282 17.6267 58.8549 18.5973 59.6229 19.3013C60.4122 20.0053 61.3616 20.3573 62.4709 20.3573C63.3029 20.3573 63.9962 20.176 64.5509 19.8133C65.1269 19.4293 65.5536 18.9387 65.8309 18.3413H69.9909C69.6922 19.344 69.1909 20.2613 68.4869 21.0933C67.8042 21.904 66.9509 22.544 65.9269 23.0133C64.9242 23.4827 63.7829 23.7173 62.5029 23.7173ZM62.5349 10.4053C61.5322 10.4053 60.6469 10.6933 59.8789 11.2693C59.1109 11.824 58.6202 12.6773 58.4069 13.8293H66.3109C66.2469 12.784 65.8629 11.952 65.1589 11.3333C64.4549 10.7147 63.5802 10.4053 62.5349 10.4053ZM78.1466 23.3333C76.4826 23.3333 75.1492 22.928 74.1466 22.1173C73.1439 21.3067 72.6426 19.8667 72.6426 17.7973V10.8853H69.9226V7.46134H72.6426L73.1226 3.20534H76.7386V7.46134H81.0266V10.8853H76.7386V17.8293C76.7386 18.5973 76.8986 19.1307 77.2186 19.4293C77.5599 19.7067 78.1359 19.8453 78.9466 19.8453H80.9306V23.3333H78.1466ZM86.6236 23.3333L80.7036 0.933336H85.0876L89.1196 18.7573L93.8556 0.933336H98.3676L102.976 18.7573L107.008 0.933336H111.424L105.344 23.3333H100.48L96.0316 6.72534L91.4556 23.3333H86.6236ZM115.396 23.7173C114.03 23.7173 112.91 23.504 112.036 23.0773C111.161 22.6293 110.51 22.0427 110.084 21.3173C109.657 20.592 109.444 19.792 109.444 18.9173C109.444 17.4453 110.02 16.2507 111.172 15.3333C112.324 14.416 114.052 13.9573 116.356 13.9573H120.388V13.5733C120.388 12.4853 120.078 11.6853 119.46 11.1733C118.841 10.6613 118.073 10.4053 117.156 10.4053C116.324 10.4053 115.598 10.608 114.98 11.0133C114.361 11.3973 113.977 11.9733 113.828 12.7413H109.828C109.934 11.5893 110.318 10.5867 110.98 9.73334C111.662 8.88 112.537 8.22934 113.604 7.78134C114.67 7.312 115.865 7.07734 117.188 7.07734C119.449 7.07734 121.23 7.64267 122.532 8.77334C123.833 9.904 124.484 11.504 124.484 13.5733V23.3333H120.996L120.612 20.7733C120.142 21.6267 119.481 22.3307 118.628 22.8853C117.796 23.44 116.718 23.7173 115.396 23.7173ZM116.324 20.5173C117.497 20.5173 118.404 20.1333 119.044 19.3653C119.705 18.5973 120.121 17.648 120.292 16.5173H116.804C115.716 16.5173 114.937 16.72 114.468 17.1253C113.998 17.5093 113.764 17.9893 113.764 18.5653C113.764 19.184 113.998 19.664 114.468 20.0053C114.937 20.3467 115.556 20.5173 116.324 20.5173ZM129.652 23.3333L123.828 7.46134H128.116L132.148 19.4613L136.18 7.46134H140.468L134.612 23.3333H129.652ZM147.422 23.7173C145.822 23.7173 144.403 23.376 143.166 22.6933C141.928 22.0107 140.958 21.0507 140.254 19.8133C139.55 18.576 139.198 17.1467 139.198 15.5253C139.198 13.8827 139.539 12.4213 140.222 11.1413C140.926 9.86134 141.886 8.86934 143.102 8.16534C144.339 7.44 145.79 7.07734 147.454 7.07734C149.011 7.07734 150.387 7.41867 151.582 8.10134C152.776 8.784 153.704 9.72267 154.366 10.9173C155.048 12.0907 155.39 13.4027 155.39 14.8533C155.39 15.088 155.379 15.3333 155.358 15.5893C155.358 15.8453 155.347 16.112 155.326 16.3893H143.262C143.347 17.6267 143.774 18.5973 144.542 19.3013C145.331 20.0053 146.28 20.3573 147.39 20.3573C148.222 20.3573 148.915 20.176 149.47 19.8133C150.046 19.4293 150.472 18.9387 150.75 18.3413H154.91C154.611 19.344 154.11 20.2613 153.406 21.0933C152.723 21.904 151.87 22.544 150.846 23.0133C149.843 23.4827 148.702 23.7173 147.422 23.7173ZM147.454 10.4053C146.451 10.4053 145.566 10.6933 144.798 11.2693C144.03 11.824 143.539 12.6773 143.326 13.8293H151.23C151.166 12.784 150.782 11.952 150.078 11.3333C149.374 10.7147 148.499 10.4053 147.454 10.4053ZM158.035 23.5573C157.288 23.5573 156.669 23.3227 156.179 22.8533C155.709 22.384 155.475 21.8187 155.475 21.1573C155.475 20.4747 155.709 19.8987 156.179 19.4293C156.669 18.96 157.288 18.7253 158.035 18.7253C158.781 18.7253 159.389 18.96 159.859 19.4293C160.349 19.8987 160.595 20.4747 160.595 21.1573C160.595 21.8187 160.349 22.384 159.859 22.8533C159.389 23.3227 158.781 23.5573 158.035 23.5573Z" fill="#FF3257"/>
</g>
</g>
</g>
</g>
<defs>
<clipPath id="clip0_1_3">
<rect width="1512" height="1361" fill="white" transform="translate(-120 -40)"/>
</clipPath>
<clipPath id="clip1_1_3">
<rect width="160.667" height="24" fill="white"/>
</clipPath>
</defs>
</svg>
