<svg width="168" height="32" viewBox="0 0 168 32" fill="none" xmlns="http://www.w3.org/2000/svg">
<path id="Vector" d="M2.4776 24V10.2965H0.0592041V8.00717H2.4776V5.23427C2.4776 3.68658 2.8648 2.55806 3.6384 1.8487C4.412 1.13934 5.5408 0.784668 7.024 0.784668H8.636V3.1062H7.4432C6.6264 3.1062 6.0464 3.27817 5.7024 3.62209C5.3584 3.94453 5.1864 4.50341 5.1864 5.29875V8.00717H9.11999V10.2965H5.1864V24H2.4776ZM16.4224 24.3869C14.9176 24.3869 13.5632 24.0429 12.36 23.3551C11.156 22.6673 10.1992 21.7 9.4896 20.4532C8.8024 19.1849 8.4584 17.7017 8.4584 16.0036C8.4584 14.3054 8.8128 12.833 9.5224 11.5862C10.2312 10.318 11.188 9.33997 12.392 8.65205C13.6168 7.96421 14.9824 7.62029 16.4864 7.62029C17.9912 7.62029 19.3456 7.96421 20.5496 8.65205C21.7536 9.33997 22.6992 10.318 23.3872 11.5862C24.096 12.833 24.4512 14.3054 24.4512 16.0036C24.4512 17.7017 24.096 19.1849 23.3872 20.4532C22.6776 21.7 21.7104 22.6673 20.4848 23.3551C19.2816 24.0429 17.9272 24.3869 16.4224 24.3869ZM16.4224 22.0653C17.3464 22.0653 18.2064 21.8397 19.0016 21.3882C19.7968 20.9369 20.4416 20.2597 20.936 19.3569C21.4304 18.4541 21.6776 17.3363 21.6776 16.0036C21.6776 14.6709 21.4304 13.5531 20.936 12.6503C20.4632 11.7474 19.8296 11.0704 19.0344 10.6189C18.2384 10.1675 17.3896 9.94181 16.4864 9.94181C15.5624 9.94181 14.7024 10.1675 13.9072 10.6189C13.112 11.0704 12.4672 11.7474 11.9728 12.6503C11.4784 13.5531 11.2312 14.6709 11.2312 16.0036C11.2312 17.3363 11.4784 18.4541 11.9728 19.3569C12.4672 20.2597 13.1016 20.9369 13.8752 21.3882C14.6704 21.8397 15.5192 22.0653 16.4224 22.0653ZM25.6376 24V8.00717H28.088L28.3136 11.0704C28.808 10.017 29.56 9.17869 30.5704 8.55533C31.5808 7.93197 32.828 7.62029 34.3112 7.62029V10.4577H33.5696C32.6232 10.4577 31.7528 10.6297 30.9576 10.9736C30.1624 11.2961 29.528 11.8549 29.0552 12.6503C28.5824 13.4456 28.3456 14.5419 28.3456 15.9391V24H25.6376ZM48.012 24.3869C46.5072 24.3869 45.1528 24.0429 43.9496 23.3551C42.7456 22.6673 41.7888 21.7 41.08 20.4532C40.392 19.1849 40.048 17.7017 40.048 16.0036C40.048 14.3054 40.4024 12.833 41.112 11.5862C41.8216 10.318 42.7776 9.33997 43.9816 8.65205C45.2072 7.96421 46.572 7.62029 48.0768 7.62029C49.5816 7.62029 50.9352 7.96421 52.1392 8.65205C53.3432 9.33997 54.2888 10.318 54.9768 11.5862C55.6864 12.833 56.0408 14.3054 56.0408 16.0036C56.0408 17.7017 55.6864 19.1849 54.9768 20.4532C54.2672 21.7 53.3 22.6673 52.0744 23.3551C50.8712 24.0429 49.5168 24.3869 48.012 24.3869ZM48.012 22.0653C48.9368 22.0653 49.796 21.8397 50.5912 21.3882C51.3872 20.9369 52.032 20.2597 52.5264 19.3569C53.0208 18.4541 53.268 17.3363 53.268 16.0036C53.268 14.6709 53.0208 13.5531 52.5264 12.6503C52.0536 11.7474 51.4192 11.0704 50.624 10.6189C49.8288 10.1675 48.9792 9.94181 48.0768 9.94181C47.152 9.94181 46.2928 10.1675 45.4968 10.6189C44.7016 11.0704 44.0568 11.7474 43.5624 12.6503C43.068 13.5531 42.8208 14.6709 42.8208 16.0036C42.8208 17.3363 43.068 18.4541 43.5624 19.3569C44.0568 20.2597 44.6912 20.9369 45.4648 21.3882C46.26 21.8397 47.1096 22.0653 48.012 22.0653ZM57.2272 24V8.00717H59.6776L59.9032 11.0704C60.3976 10.017 61.1504 9.17869 62.1608 8.55533C63.1704 7.93197 64.4176 7.62029 65.9008 7.62029V10.4577H65.1592C64.2136 10.4577 63.3424 10.6297 62.5472 10.9736C61.752 11.2961 61.1176 11.8549 60.6448 12.6503C60.172 13.4456 59.936 14.5419 59.936 15.9391V24H57.2272ZM72.3032 18.97C71.4 18.97 70.5728 18.8517 69.82 18.6153L68.208 20.1308C68.4448 20.3027 68.7344 20.4532 69.0784 20.5821C69.444 20.6897 69.96 20.7971 70.6264 20.9046C71.2928 20.9906 72.228 21.0873 73.4312 21.1948C75.5808 21.3453 77.1184 21.8397 78.0424 22.678C78.9664 23.5163 79.4288 24.6126 79.4288 25.9669C79.4288 26.8912 79.1712 27.7725 78.6552 28.6108C78.1608 29.4491 77.3864 30.137 76.3336 30.6744C75.3016 31.2117 73.9688 31.4805 72.3352 31.4805C70.8952 31.4805 69.616 31.287 68.4984 30.9001C67.3808 30.5346 66.5096 29.965 65.8864 29.1912C65.2632 28.4389 64.9512 27.4823 64.9512 26.3215C64.9512 25.7197 65.1128 25.064 65.4352 24.3546C65.7576 23.6668 66.3592 23.0112 67.2408 22.3878C66.768 22.1944 66.3592 21.9901 66.0152 21.7752C65.6928 21.5387 65.392 21.2808 65.1128 21.0013V20.2597L67.8536 17.5513C66.5848 16.4765 65.9512 15.0578 65.9512 13.2952C65.9512 12.2418 66.1984 11.2853 66.6928 10.4255C67.1872 9.56565 67.9072 8.88853 68.8528 8.39413C69.7984 7.87823 70.9488 7.62029 72.3032 7.62029C73.2272 7.62029 74.0656 7.74926 74.8184 8.00717H80.7184V10.0385L77.72 10.1675C78.3432 11.0704 78.6552 12.1129 78.6552 13.2952C78.6552 14.3485 78.3968 15.305 77.8808 16.1648C77.3864 17.0246 76.6664 17.7125 75.7208 18.2284C74.7968 18.7228 73.6576 18.97 72.3032 18.97ZM72.3032 16.7452C73.4424 16.7452 74.3448 16.455 75.0112 15.8746C75.6992 15.2728 76.0432 14.4129 76.0432 13.2952C76.0432 12.1989 75.6992 11.3605 75.0112 10.7801C74.3448 10.1783 73.4424 9.87733 72.3032 9.87733C71.1424 9.87733 70.2176 10.1783 69.5304 10.7801C68.864 11.3605 68.5304 12.1989 68.5304 13.2952C68.5304 14.4129 68.864 15.2728 69.5304 15.8746C70.2176 16.455 71.1424 16.7452 72.3032 16.7452ZM67.5952 26.0636C67.5952 27.1384 68.0472 27.9337 68.9496 28.4496C69.8528 28.9869 70.9808 29.2557 72.3352 29.2557C73.668 29.2557 74.732 28.9655 75.5272 28.3851C76.344 27.8047 76.7528 27.0309 76.7528 26.0636C76.7528 25.3757 76.4728 24.7738 75.9144 24.2579C75.3552 23.7635 74.324 23.4733 72.8192 23.3873C71.6368 23.3013 70.616 23.1939 69.756 23.0649C68.8744 23.5378 68.2944 24.0429 68.0144 24.5804C67.7352 25.1393 67.5952 25.6337 67.5952 26.0636ZM86.5144 24.3869C85.1816 24.3869 84.0752 24.1612 83.1936 23.7098C82.312 23.2584 81.6568 22.6565 81.2264 21.9041C80.7968 21.1518 80.5816 20.3349 80.5816 19.4537C80.5816 17.82 81.2048 16.5625 82.452 15.6812C83.6984 14.7998 85.3968 14.3592 87.5464 14.3592H91.8672V14.1657C91.8672 12.7685 91.5016 11.7152 90.7704 11.0058C90.04 10.275 89.0616 9.90957 87.8368 9.90957C86.7832 9.90957 85.8696 10.1783 85.096 10.7157C84.3432 11.2316 83.8704 11.9946 83.6768 13.0049H80.904C81.012 11.8442 81.3984 10.8661 82.0648 10.0708C82.7528 9.27541 83.6016 8.67357 84.612 8.26517C85.6224 7.83524 86.6976 7.62029 87.8368 7.62029C90.072 7.62029 91.7488 8.22213 92.8664 9.42589C94.0056 10.6082 94.5752 12.1881 94.5752 14.1657V24H92.1576L91.996 21.1303C91.5448 22.0331 90.8784 22.8069 89.9968 23.4518C89.1368 24.0752 87.976 24.3869 86.5144 24.3869ZM86.9336 22.0976C87.9656 22.0976 88.8472 21.8289 89.5776 21.2915C90.3304 20.7541 90.9 20.0555 91.2864 19.1957C91.6736 18.3359 91.8672 17.433 91.8672 16.4873V16.455H87.772C86.1816 16.455 85.0528 16.7345 84.3864 17.2933C83.7416 17.8307 83.4192 18.5078 83.4192 19.3247C83.4192 20.163 83.72 20.8401 84.3224 21.356C84.9456 21.8504 85.816 22.0976 86.9336 22.0976ZM96.0592 24V8.00717H98.5096L98.6712 10.8769C99.1864 9.86661 99.928 9.07125 100.896 8.49085C101.863 7.91048 102.959 7.62029 104.185 7.62029C106.076 7.62029 107.581 8.20069 108.698 9.36141C109.838 10.5007 110.407 12.2633 110.407 14.6493V24H107.699V14.9396C107.699 11.6077 106.323 9.94181 103.572 9.94181C102.196 9.94181 101.046 10.4469 100.122 11.4573C99.2192 12.4461 98.768 13.8648 98.768 15.7134V24H96.0592ZM113.576 4.46042C113.038 4.46042 112.587 4.28846 112.222 3.94453C111.878 3.5791 111.706 3.1277 111.706 2.5903C111.706 2.07441 111.878 1.6445 112.222 1.30056C112.587 0.956631 113.038 0.784668 113.576 0.784668C114.092 0.784668 114.533 0.956631 114.898 1.30056C115.263 1.6445 115.446 2.07441 115.446 2.5903C115.446 3.1277 115.263 3.5791 114.898 3.94453C114.533 4.28846 114.092 4.46042 113.576 4.46042ZM112.222 24V8.00717H114.93V24H112.222ZM123.193 24.3869C121.28 24.3869 119.689 23.9033 118.421 22.936C117.153 21.9686 116.411 20.6574 116.196 19.0022H118.969C119.141 19.8405 119.582 20.5714 120.291 21.1948C121.022 21.7967 122 22.0976 123.225 22.0976C124.364 22.0976 125.202 21.8612 125.74 21.3882C126.278 20.8938 126.546 20.3135 126.546 19.6471C126.546 18.6798 126.191 18.0349 125.482 17.7125C124.794 17.3901 123.816 17.0999 122.548 16.8419C121.688 16.67 120.828 16.4228 119.969 16.1003C119.109 15.7779 118.389 15.3265 117.808 14.7461C117.228 14.1442 116.938 13.3597 116.938 12.3923C116.938 10.9951 117.454 9.85581 118.486 8.97453C119.538 8.07165 120.958 7.62029 122.742 7.62029C124.439 7.62029 125.826 8.05021 126.901 8.91005C127.997 9.74837 128.631 10.9521 128.803 12.5213H126.127C126.019 11.7045 125.665 11.0704 125.063 10.6189C124.482 10.1461 123.698 9.90957 122.709 9.90957C121.742 9.90957 120.99 10.1138 120.452 10.5222C119.936 10.9306 119.678 11.468 119.678 12.1344C119.678 12.7793 120.011 13.2844 120.678 13.6498C121.366 14.0153 122.29 14.3269 123.45 14.5849C124.439 14.7998 125.374 15.0685 126.256 15.3909C127.158 15.6919 127.89 16.1541 128.449 16.7774C129.029 17.3793 129.319 18.2606 129.319 19.4214C129.341 20.8616 128.793 22.0546 127.674 23.0005C126.578 23.9248 125.085 24.3869 123.193 24.3869ZM137.799 24.3869C136.273 24.3869 134.918 24.0429 133.737 23.3551C132.554 22.6457 131.619 21.6677 130.931 20.4209C130.265 19.1742 129.932 17.7017 129.932 16.0036C129.932 14.3269 130.265 12.8653 130.931 11.6185C131.598 10.3502 132.522 9.37221 133.704 8.68429C134.908 7.97497 136.294 7.62029 137.863 7.62029C139.411 7.62029 140.744 7.97497 141.862 8.68429C143.001 9.37221 143.872 10.2857 144.474 11.425C145.075 12.5643 145.376 13.7896 145.376 15.1008C145.376 15.3373 145.366 15.5737 145.344 15.8101C145.344 16.0466 145.344 16.3153 145.344 16.6162H132.608C132.672 17.8415 132.952 18.8625 133.446 19.6793C133.962 20.4747 134.596 21.0765 135.349 21.485C136.122 21.8934 136.939 22.0976 137.799 22.0976C138.917 22.0976 139.852 21.8397 140.604 21.3237C141.357 20.8079 141.905 20.1093 142.249 19.228H144.925C144.495 20.7112 143.667 21.9472 142.442 22.936C141.238 23.9033 139.69 24.3869 137.799 24.3869ZM137.799 9.90957C136.51 9.90957 135.359 10.3073 134.349 11.1026C133.36 11.8765 132.79 13.0157 132.64 14.5204H142.7C142.636 13.0802 142.142 11.9517 141.217 11.1349C140.293 10.318 139.154 9.90957 137.799 9.90957ZM146.386 24V8.00717H148.838L149.063 11.0704C149.558 10.017 150.31 9.17869 151.32 8.55533C152.33 7.93197 153.577 7.62029 155.06 7.62029V10.4577H154.318C153.373 10.4577 152.502 10.6297 151.707 10.9736C150.911 11.2961 150.278 11.8549 149.805 12.6503C149.332 13.4456 149.095 14.5419 149.095 15.9391V24H146.386ZM161.647 24.3869C159.734 24.3869 158.143 23.9033 156.875 22.936C155.606 21.9686 154.865 20.6574 154.65 19.0022H157.423C157.595 19.8405 158.036 20.5714 158.745 21.1948C159.476 21.7967 160.454 22.0976 161.679 22.0976C162.818 22.0976 163.657 21.8612 164.194 21.3882C164.731 20.8938 165 20.3135 165 19.6471C165 18.6798 164.646 18.0349 163.936 17.7125C163.248 17.3901 162.27 17.0999 161.002 16.8419C160.142 16.67 159.282 16.4228 158.422 16.1003C157.562 15.7779 156.842 15.3265 156.262 14.7461C155.682 14.1442 155.392 13.3597 155.392 12.3923C155.392 10.9951 155.907 9.85581 156.939 8.97453C157.993 8.07165 159.411 7.62029 161.195 7.62029C162.894 7.62029 164.28 8.05021 165.355 8.91005C166.451 9.74837 167.086 10.9521 167.258 12.5213H164.581C164.474 11.7045 164.119 11.0704 163.517 10.6189C162.937 10.1461 162.152 9.90957 161.163 9.90957C160.196 9.90957 159.444 10.1138 158.906 10.5222C158.39 10.9306 158.132 11.468 158.132 12.1344C158.132 12.7793 158.466 13.2844 159.132 13.6498C159.82 14.0153 160.744 14.3269 161.905 14.5849C162.894 14.7998 163.829 15.0685 164.71 15.3909C165.613 15.6919 166.344 16.1541 166.902 16.7774C167.483 17.3793 167.773 18.2606 167.773 19.4214C167.794 20.8616 167.246 22.0546 166.129 23.0005C165.033 23.9248 163.538 24.3869 161.647 24.3869Z" fill="#0167F6"/>
</svg>
