<svg width="162" height="25" viewBox="0 0 162 25" fill="none" xmlns="http://www.w3.org/2000/svg">
<path id="Vector" d="M6.61466 24V4.75062H0.0369873V1.42954H17.3517V4.75062H10.7418V24H6.61466ZM19.9577 5.52446C19.2053 5.52446 18.5819 5.29876 18.0875 4.84734C17.6146 4.39594 17.3781 3.8263 17.3781 3.13844C17.3781 2.45058 17.6146 1.8917 18.0875 1.46178C18.5819 1.01038 19.2053 0.784668 19.9577 0.784668C20.71 0.784668 21.3226 1.01038 21.7955 1.46178C22.2899 1.8917 22.5371 2.45058 22.5371 3.13844C22.5371 3.8263 22.2899 4.39594 21.7955 4.84734C21.3226 5.29876 20.71 5.52446 19.9577 5.52446ZM17.8941 24V8.00717H22.0213V24H17.8941ZM31.5847 24.3869C29.951 24.3869 28.5109 24.0322 27.2641 23.3229C26.0173 22.6135 25.0285 21.6247 24.2977 20.3565C23.5883 19.0882 23.2337 17.6373 23.2337 16.0036C23.2337 14.3699 23.5883 12.9189 24.2977 11.6507C25.0285 10.3825 26.0173 9.39365 27.2641 8.68429C28.5109 7.97497 29.951 7.62029 31.5847 7.62029C33.6268 7.62029 35.3465 8.15765 36.7437 9.23245C38.1409 10.2857 39.0329 11.7474 39.4199 13.6176H35.067C34.8521 12.8437 34.4221 12.2418 33.7773 11.812C33.1539 11.3605 32.4123 11.1349 31.5525 11.1349C30.4132 11.1349 29.4459 11.5648 28.6505 12.4245C27.8552 13.2844 27.4576 14.4774 27.4576 16.0036C27.4576 17.5298 27.8552 18.7228 28.6505 19.5826C29.4459 20.4425 30.4132 20.8724 31.5525 20.8724C32.4123 20.8724 33.1539 20.6574 33.7773 20.2275C34.4221 19.7976 34.8521 19.1849 35.067 18.3896H39.4199C39.0329 20.1953 38.1409 21.6462 36.7437 22.7425C35.3465 23.8388 33.6268 24.3869 31.5847 24.3869ZM40.5036 24V0.784668H44.6307V14.4881L50.3056 8.00717H55.2066L48.6612 15.2942L56.2706 24H51.1117L44.6307 15.9713V24H40.5036ZM62.6981 24.3869C61.086 24.3869 59.6565 24.0429 58.4097 23.3551C57.163 22.6673 56.1849 21.7 55.4756 20.4532C54.7663 19.2065 54.4116 17.7662 54.4116 16.1325C54.4116 14.4774 54.7555 13.0049 55.4433 11.7152C56.1527 10.4255 57.1201 9.42589 58.3453 8.71653C59.5921 7.98571 61.0537 7.62029 62.7304 7.62029C64.2996 7.62029 65.6861 7.96421 66.8898 8.65205C68.0936 9.33997 69.0286 10.2857 69.695 11.4895C70.3829 12.6717 70.7268 13.9937 70.7268 15.4554C70.7268 15.6919 70.7161 15.9391 70.6945 16.197C70.6945 16.455 70.6838 16.7237 70.6623 17.0032H58.5065C58.5925 18.2499 59.0224 19.228 59.7962 19.9373C60.5916 20.6466 61.5481 21.0013 62.6659 21.0013C63.5042 21.0013 64.2029 20.8186 64.7617 20.4532C65.3421 20.0663 65.7721 19.5719 66.0515 18.97H70.2431C69.9422 19.9803 69.437 20.9046 68.7277 21.7429C68.0398 22.5597 67.18 23.2046 66.1482 23.6776C65.1379 24.1505 63.9879 24.3869 62.6981 24.3869ZM62.7304 10.9736C61.7201 10.9736 60.8281 11.2638 60.0542 11.8442C59.2804 12.4031 58.786 13.2629 58.571 14.4237H66.5351C66.4706 13.3704 66.0837 12.5321 65.3744 11.9087C64.665 11.2853 63.7837 10.9736 62.7304 10.9736ZM78.4609 24C76.7843 24 75.4408 23.5916 74.4305 22.7747C73.4202 21.9579 72.915 20.5069 72.915 18.4218V11.4573H70.1744V8.00717H72.915L73.3987 3.71882H77.0422V8.00717H81.3632V11.4573H77.0422V18.4541C77.0422 19.228 77.2034 19.7653 77.5259 20.0663C77.8698 20.3457 78.4502 20.4854 79.2672 20.4854H81.2664V24H78.4609ZM87.0024 24L81.0368 1.42954H85.4544L89.5168 19.3892L94.2896 1.42954H98.8352L103.478 19.3892L107.542 1.42954H111.991L105.865 24H100.964L96.4816 7.26561L91.8712 24H87.0024ZM115.993 24.3869C114.618 24.3869 113.489 24.172 112.607 23.7421C111.726 23.2906 111.07 22.6995 110.641 21.9686C110.21 21.2378 109.996 20.4317 109.996 19.5504C109.996 18.0672 110.576 16.8634 111.737 15.9391C112.898 15.0148 114.639 14.5526 116.961 14.5526H121.023V14.1657C121.023 13.0694 120.711 12.2633 120.088 11.7474C119.465 11.2316 118.691 10.9736 117.766 10.9736C116.928 10.9736 116.198 11.1778 115.574 11.5862C114.95 11.9732 114.564 12.5536 114.413 13.3274H110.382C110.49 12.1666 110.877 11.1563 111.543 10.2965C112.231 9.43669 113.113 8.78101 114.187 8.32965C115.262 7.85673 116.466 7.62029 117.798 7.62029C120.078 7.62029 121.872 8.18989 123.183 9.32917C124.494 10.4685 125.15 12.0806 125.15 14.1657V24H121.636L121.249 21.4205C120.776 22.2803 120.11 22.9897 119.25 23.5485C118.411 24.1074 117.326 24.3869 115.993 24.3869ZM116.928 21.1625C118.11 21.1625 119.024 20.7757 119.669 20.0018C120.335 19.228 120.754 18.2714 120.926 17.1321H117.412C116.315 17.1321 115.531 17.3363 115.058 17.7448C114.585 18.1317 114.349 18.6153 114.349 19.1957C114.349 19.8191 114.585 20.3027 115.058 20.6466C115.531 20.9906 116.154 21.1625 116.928 21.1625ZM130.358 24L124.49 8.00717H128.81L132.873 20.0985L136.935 8.00717H141.256L135.355 24H130.358ZM148.263 24.3869C146.651 24.3869 145.222 24.0429 143.974 23.3551C142.728 22.6673 141.75 21.7 141.041 20.4532C140.331 19.2065 139.977 17.7662 139.977 16.1325C139.977 14.4774 140.321 13.0049 141.008 11.7152C141.718 10.4255 142.685 9.42589 143.91 8.71653C145.157 7.98571 146.618 7.62029 148.295 7.62029C149.865 7.62029 151.251 7.96421 152.454 8.65205C153.658 9.33997 154.594 10.2857 155.26 11.4895C155.948 12.6717 156.292 13.9937 156.292 15.4554C156.292 15.6919 156.281 15.9391 156.259 16.197C156.259 16.455 156.249 16.7237 156.227 17.0032H144.071C144.158 18.2499 144.587 19.228 145.361 19.9373C146.157 20.6466 147.113 21.0013 148.231 21.0013C149.069 21.0013 149.768 20.8186 150.326 20.4532C150.907 20.0663 151.337 19.5719 151.616 18.97H155.808C155.507 19.9803 155.002 20.9046 154.293 21.7429C153.605 22.5597 152.745 23.2046 151.713 23.6776C150.703 24.1505 149.553 24.3869 148.263 24.3869ZM148.295 10.9736C147.285 10.9736 146.393 11.2638 145.619 11.8442C144.846 12.4031 144.351 13.2629 144.136 14.4237H152.1C152.035 13.3704 151.649 12.5321 150.939 11.9087C150.23 11.2853 149.349 10.9736 148.295 10.9736ZM158.957 24.2257C158.205 24.2257 157.581 23.9893 157.086 23.5163C156.614 23.0434 156.378 22.4738 156.378 21.8074C156.378 21.1196 156.614 20.5392 157.086 20.0663C157.581 19.5933 158.205 19.3569 158.957 19.3569C159.709 19.3569 160.322 19.5933 160.794 20.0663C161.289 20.5392 161.536 21.1196 161.536 21.8074C161.536 22.4738 161.289 23.0434 160.794 23.5163C160.322 23.9893 159.709 24.2257 158.957 24.2257Z" fill="#0167F6"/>
</svg>
